<svg width="24" height="24" viewBox="0 0 24 24" fill="none" xmlns="http://www.w3.org/2000/svg">
<path d="M14.13 11.3396C14.52 9.69959 13.09 8.26954 11.45 8.65954C10.68 8.84954 10.05 9.47957 9.85998 10.2496C9.46998 11.8896 10.9 13.3196 12.54 12.9296C13.32 12.7396 13.95 12.1096 14.13 11.3396Z" stroke="white" stroke-width="1.5" stroke-linecap="round" stroke-linejoin="round"/>
<path d="M18.01 17.19C19.72 15.59 20.79 13.32 20.79 10.79C20.79 5.92998 16.85 2 12 2C7.15002 2 3.21002 5.93998 3.21002 10.79C3.21002 13.33 4.29002 15.62 6.02002 17.22" stroke="white" stroke-width="1.5" stroke-linecap="round" stroke-linejoin="round"/>
<path d="M8.00002 14.5498C7.08002 13.5698 6.51001 12.2498 6.51001 10.7898C6.51001 7.75979 8.97002 5.2998 12 5.2998C15.03 5.2998 17.49 7.75979 17.49 10.7898C17.49 12.2498 16.92 13.5598 16 14.5498" stroke="white" stroke-width="1.5" stroke-linecap="round" stroke-linejoin="round"/>
<path d="M10.3 16.6603L8.85998 18.4503C7.71998 19.8803 8.72997 21.9903 10.56 21.9903H13.43C15.26 21.9903 16.28 19.8703 15.13 18.4503L13.69 16.6603C12.83 15.5703 11.17 15.5703 10.3 16.6603Z" stroke="white" stroke-width="1.5" stroke-linecap="round" stroke-linejoin="round"/>
</svg>
